<svg width="31" height="31" viewBox="0 0 31 31" fill="none" xmlns="http://www.w3.org/2000/svg">
<g clip-path="url(#clip0_1_40)">
<mask id="path-1-inside-1_1_40" fill="white">
<path d="M4.72656 22.4904H1.72697C0.899034 22.4913 0.228052 23.1623 0.227173 23.9902V30.4893C0.227173 30.7654 0.45097 30.9892 0.727085 30.9892H5.72638C6.0025 30.9892 6.22629 30.7654 6.22629 30.4893V23.9902C6.22541 23.1623 5.55449 22.4913 4.72656 22.4904ZM5.22647 29.9894H1.227V23.9902C1.22735 23.7143 1.45097 23.4906 1.72691 23.4903H4.7265C5.00244 23.4906 5.22606 23.7143 5.22641 23.9902V29.9894H5.22647Z"/>
</mask>
<path d="M4.72656 22.4904H1.72697C0.899034 22.4913 0.228052 23.1623 0.227173 23.9902V30.4893C0.227173 30.7654 0.45097 30.9892 0.727085 30.9892H5.72638C6.0025 30.9892 6.22629 30.7654 6.22629 30.4893V23.9902C6.22541 23.1623 5.55449 22.4913 4.72656 22.4904ZM5.22647 29.9894H1.227V23.9902C1.22735 23.7143 1.45097 23.4906 1.72691 23.4903H4.7265C5.00244 23.4906 5.22606 23.7143 5.22641 23.9902V29.9894H5.22647Z" fill="#2E2C33"/>
<path d="M4.72656 22.4904L4.72882 20.4904H4.72656V22.4904ZM1.72697 22.4904V20.4904L1.72484 20.4904L1.72697 22.4904ZM0.227173 23.9902L-1.77283 23.9881V23.9902H0.227173ZM6.22629 23.9902H8.22629L8.22629 23.9881L6.22629 23.9902ZM1.227 29.9894H-0.773003V31.9894H1.227V29.9894ZM1.227 23.9902L-0.773003 23.9876V23.9902H1.227ZM1.72691 23.4903V21.4903L1.72436 21.4903L1.72691 23.4903ZM4.7265 23.4903L4.72905 21.4903H4.7265V23.4903ZM5.22641 23.9902H7.22641L7.22641 23.9876L5.22641 23.9902ZM5.22641 29.9894H3.22641V31.9894H5.22641V29.9894ZM4.72656 20.4904H1.72697V24.4904H4.72656V20.4904ZM1.72484 20.4904C-0.206 20.4925 -1.77078 22.0572 -1.77283 23.9881L2.22717 23.9923C2.22688 24.2673 2.00407 24.4901 1.72909 24.4904L1.72484 20.4904ZM-1.77283 23.9902V30.4893H2.22717V23.9902H-1.77283ZM-1.77283 30.4893C-1.77283 31.87 -0.653586 32.9892 0.727085 32.9892V28.9892C1.55553 28.9892 2.22717 29.6608 2.22717 30.4893H-1.77283ZM0.727085 32.9892H5.72638V28.9892H0.727085V32.9892ZM5.72638 32.9892C7.10705 32.9892 8.22629 31.87 8.22629 30.4893H4.22629C4.22629 29.6608 4.89794 28.9892 5.72638 28.9892V32.9892ZM8.22629 30.4893V23.9902H4.22629V30.4893H8.22629ZM8.22629 23.9881C8.22424 22.0572 6.65953 20.4926 4.72882 20.4904L4.72429 24.4904C4.44945 24.4901 4.22659 24.2673 4.22629 23.9923L8.22629 23.9881ZM5.22647 27.9894H1.227V31.9894H5.22647V27.9894ZM3.227 29.9894V23.9902H-0.773003V29.9894H3.227ZM3.227 23.9927C3.22594 24.8194 2.55609 25.4892 1.72946 25.4903L1.72436 21.4903C0.345847 21.492 -0.771245 22.6091 -0.773001 23.9876L3.227 23.9927ZM1.72691 25.4903H4.7265V21.4903H1.72691V25.4903ZM4.72395 25.4903C3.89731 25.4892 3.22747 24.8194 3.22641 23.9927L7.22641 23.9876C7.22465 22.6091 6.10756 21.492 4.72905 21.4903L4.72395 25.4903ZM3.22641 23.9902V29.9894H7.22641V23.9902H3.22641ZM5.22641 31.9894H5.22647V27.9894H5.22641V31.9894Z" fill="#2E2C33" mask="url(#path-1-inside-1_1_40)"/>
<mask id="path-3-inside-2_1_40" fill="white">
<path d="M12.7192 15.4915H9.71964C8.89171 15.4923 8.22073 16.1633 8.21985 16.9912V30.4894C8.21985 30.7655 8.44365 30.9893 8.71976 30.9893H13.7191C13.9952 30.9893 14.219 30.7655 14.219 30.4894V16.9912C14.2181 16.1633 13.5472 15.4923 12.7192 15.4915ZM13.2191 29.9894H9.21967V16.9912C9.22002 16.7153 9.44365 16.4917 9.71959 16.4913H12.7192C12.9951 16.4917 13.2187 16.7153 13.2191 16.9912V29.9894H13.2191Z"/>
</mask>
<path d="M12.7192 15.4915H9.71964C8.89171 15.4923 8.22073 16.1633 8.21985 16.9912V30.4894C8.21985 30.7655 8.44365 30.9893 8.71976 30.9893H13.7191C13.9952 30.9893 14.219 30.7655 14.219 30.4894V16.9912C14.2181 16.1633 13.5472 15.4923 12.7192 15.4915ZM13.2191 29.9894H9.21967V16.9912C9.22002 16.7153 9.44365 16.4917 9.71959 16.4913H12.7192C12.9951 16.4917 13.2187 16.7153 13.2191 16.9912V29.9894H13.2191Z" fill="#2E2C33"/>
<path d="M12.7192 15.4915L12.7214 13.4915H12.7192V15.4915ZM9.71964 15.4915V13.4915L9.71752 13.4915L9.71964 15.4915ZM8.21985 16.9912L6.21985 16.9891V16.9912H8.21985ZM14.219 16.9912H16.219L16.219 16.9891L14.219 16.9912ZM9.21967 29.9894H7.21967V31.9894H9.21967V29.9894ZM9.21967 16.9912L7.21967 16.9887V16.9912H9.21967ZM9.71959 16.4913V14.4913L9.71704 14.4913L9.71959 16.4913ZM12.7192 16.4913L12.7217 14.4913H12.7192V16.4913ZM13.2191 16.9912H15.2191L15.2191 16.9887L13.2191 16.9912ZM13.2191 29.9894H11.2191V31.9894H13.2191V29.9894ZM12.7192 13.4915H9.71964V17.4915H12.7192V13.4915ZM9.71752 13.4915C7.78668 13.4935 6.2219 15.0583 6.21985 16.9891L10.2198 16.9934C10.2196 17.2684 9.99674 17.4912 9.72177 17.4915L9.71752 13.4915ZM6.21985 16.9912V30.4894H10.2198V16.9912H6.21985ZM6.21985 30.4894C6.21985 31.8701 7.33907 32.9893 8.71976 32.9893V28.9893C9.54822 28.9893 10.2198 29.661 10.2198 30.4894H6.21985ZM8.71976 32.9893H13.7191V28.9893H8.71976V32.9893ZM13.7191 32.9893C15.0998 32.9893 16.219 31.8701 16.219 30.4894H12.219C12.219 29.661 12.8906 28.9893 13.7191 28.9893V32.9893ZM16.219 30.4894V16.9912H12.219V30.4894H16.219ZM16.219 16.9891C16.2169 15.0583 14.6523 13.4935 12.7214 13.4915L12.7171 17.4915C12.4421 17.4912 12.2193 17.2682 12.219 16.9934L16.219 16.9891ZM13.2191 27.9894H9.21967V31.9894H13.2191V27.9894ZM11.2197 29.9894V16.9912H7.21967V29.9894H11.2197ZM11.2197 16.9938C11.2186 17.8204 10.5488 18.4903 9.72213 18.4913L9.71704 14.4913C8.33853 14.4931 7.22143 15.6102 7.21967 16.9887L11.2197 16.9938ZM9.71959 18.4913H12.7192V14.4913H9.71959V18.4913ZM12.7166 18.4913C11.89 18.4903 11.2201 17.8204 11.2191 16.9938L15.2191 16.9887C15.2173 15.6102 14.1002 14.4931 12.7217 14.4913L12.7166 18.4913ZM11.2191 16.9912V29.9894H15.2191V16.9912H11.2191ZM13.2191 31.9894H13.2191V27.9894H13.2191V31.9894Z" fill="#2E2C33" mask="url(#path-3-inside-2_1_40)"/>
<mask id="path-5-inside-3_1_40" fill="white">
<path d="M20.7191 18.491H17.7195C16.8916 18.4919 16.2206 19.1628 16.2197 19.9908V30.4893C16.2197 30.7655 16.4435 30.9893 16.7196 30.9893H21.7189C21.9951 30.9893 22.2189 30.7655 22.2189 30.4893V19.9908C22.218 19.1628 21.547 18.4919 20.7191 18.491ZM21.2191 29.9894H17.2196V19.9908C17.22 19.7148 17.4436 19.4912 17.7195 19.4909H20.7191C20.9951 19.4912 21.2187 19.7148 21.219 19.9908V29.9894H21.2191Z"/>
</mask>
<path d="M20.7191 18.491H17.7195C16.8916 18.4919 16.2206 19.1628 16.2197 19.9908V30.4893C16.2197 30.7655 16.4435 30.9893 16.7196 30.9893H21.7189C21.9951 30.9893 22.2189 30.7655 22.2189 30.4893V19.9908C22.218 19.1628 21.547 18.4919 20.7191 18.491ZM21.2191 29.9894H17.2196V19.9908C17.22 19.7148 17.4436 19.4912 17.7195 19.4909H20.7191C20.9951 19.4912 21.2187 19.7148 21.219 19.9908V29.9894H21.2191Z" fill="#2E2C33"/>
<path d="M20.7191 18.491L20.7212 16.491H20.7191V18.491ZM17.7195 18.491V16.491L17.7174 16.491L17.7195 18.491ZM16.2197 19.9908L14.2197 19.9887V19.9908H16.2197ZM22.2189 19.9908H24.2189L24.2189 19.9888L22.2189 19.9908ZM17.2196 29.9894H15.2196V31.9894H17.2196V29.9894ZM17.2196 19.9908L15.2196 19.9882V19.9908H17.2196ZM17.7195 19.4909V17.4909L17.717 17.4909L17.7195 19.4909ZM20.7191 19.4909L20.7217 17.4909H20.7191V19.4909ZM21.219 19.9908H23.219L23.219 19.9882L21.219 19.9908ZM21.219 29.9894H19.219V31.9894H21.219V29.9894ZM20.7191 16.491H17.7195V20.491H20.7191V16.491ZM17.7174 16.491C15.7866 16.493 14.2218 18.0578 14.2197 19.9887L18.2197 19.9929C18.2194 20.2679 17.9966 20.4907 17.7216 20.491L17.7174 16.491ZM14.2197 19.9908V30.4893H18.2197V19.9908H14.2197ZM14.2197 30.4893C14.2197 31.87 15.3389 32.9893 16.7196 32.9893V28.9893C17.5481 28.9893 18.2197 29.6609 18.2197 30.4893H14.2197ZM16.7196 32.9893H21.7189V28.9893H16.7196V32.9893ZM21.7189 32.9893C23.0996 32.9893 24.2189 31.87 24.2189 30.4893H20.2189C20.2189 29.6609 20.8905 28.9893 21.7189 28.9893V32.9893ZM24.2189 30.4893V19.9908H20.2189V30.4893H24.2189ZM24.2189 19.9888C24.2169 18.0577 22.652 16.493 20.7212 16.491L20.717 20.491C20.4421 20.4907 20.2191 20.2679 20.2189 19.9928L24.2189 19.9888ZM21.2191 27.9894H17.2196V31.9894H21.2191V27.9894ZM19.2196 29.9894V19.9908H15.2196V29.9894H19.2196ZM19.2196 19.9933C19.2186 20.82 18.5487 21.4898 17.7221 21.4909L17.717 17.4909C16.3385 17.4926 15.2214 18.6097 15.2196 19.9882L19.2196 19.9933ZM17.7195 21.4909H20.7191V17.4909H17.7195V21.4909ZM20.7166 21.4909C19.8899 21.4898 19.2201 20.82 19.219 19.9933L23.219 19.9882C23.2173 18.6097 22.1002 17.4926 20.7217 17.4909L20.7166 21.4909ZM19.219 19.9908V29.9894H23.219V19.9908H19.219ZM21.219 31.9894H21.2191V27.9894H21.219V31.9894Z" fill="#2E2C33" mask="url(#path-5-inside-3_1_40)"/>
<mask id="path-7-inside-4_1_40" fill="white">
<path d="M28.7188 14.4915H25.7192C24.8912 14.4923 24.2202 15.1633 24.2194 15.9913V30.4893C24.2194 30.7655 24.4432 30.9893 24.7193 30.9893H29.7186C29.9947 30.9893 30.2185 30.7655 30.2185 30.4893V15.9913C30.2177 15.1633 29.5467 14.4923 28.7188 14.4915ZM29.2187 29.9894H25.2192V15.9913C25.2195 15.7153 25.4432 15.4917 25.7191 15.4913H28.7187C28.9947 15.4917 29.2183 15.7153 29.2187 15.9913V29.9894H29.2187Z"/>
</mask>
<path d="M28.7188 14.4915H25.7192C24.8912 14.4923 24.2202 15.1633 24.2194 15.9913V30.4893C24.2194 30.7655 24.4432 30.9893 24.7193 30.9893H29.7186C29.9947 30.9893 30.2185 30.7655 30.2185 30.4893V15.9913C30.2177 15.1633 29.5467 14.4923 28.7188 14.4915ZM29.2187 29.9894H25.2192V15.9913C25.2195 15.7153 25.4432 15.4917 25.7191 15.4913H28.7187C28.9947 15.4917 29.2183 15.7153 29.2187 15.9913V29.9894H29.2187Z" fill="#2E2C33"/>
<path d="M28.7188 14.4915L28.7209 12.4915H28.7188V14.4915ZM25.7192 14.4915V12.4915L25.717 12.4915L25.7192 14.4915ZM24.2194 15.9913L22.2194 15.9891V15.9913H24.2194ZM30.2185 15.9913H32.2185L32.2185 15.9891L30.2185 15.9913ZM25.2192 29.9894H23.2192V31.9894H25.2192V29.9894ZM25.2192 15.9913L23.2192 15.9887V15.9913H25.2192ZM25.7191 15.4913V13.4913L25.7166 13.4913L25.7191 15.4913ZM28.7187 15.4913L28.7213 13.4913H28.7187V15.4913ZM29.2187 15.9913H31.2187L31.2186 15.9887L29.2187 15.9913ZM29.2187 29.9894H27.2187V31.9894H29.2187V29.9894ZM28.7188 12.4915H25.7192V16.4915H28.7188V12.4915ZM25.717 12.4915C23.7862 12.4935 22.2214 14.0583 22.2194 15.9891L26.2194 15.9934C26.2191 16.2684 25.9963 16.4912 25.7213 16.4915L25.717 12.4915ZM22.2194 15.9913V30.4893H26.2194V15.9913H22.2194ZM22.2194 30.4893C22.2194 31.87 23.3386 32.9893 24.7193 32.9893V28.9893C25.5477 28.9893 26.2194 29.6609 26.2194 30.4893H22.2194ZM24.7193 32.9893H29.7186V28.9893H24.7193V32.9893ZM29.7186 32.9893C31.0993 32.9893 32.2185 31.87 32.2185 30.4893H28.2185C28.2185 29.6609 28.8902 28.9893 29.7186 28.9893V32.9893ZM32.2185 30.4893V15.9913H28.2185V30.4893H32.2185ZM32.2185 15.9891C32.2165 14.0584 30.6519 12.4935 28.7209 12.4915L28.7167 16.4915C28.4416 16.4912 28.2188 16.2683 28.2185 15.9934L32.2185 15.9891ZM29.2187 27.9894H25.2192V31.9894H29.2187V27.9894ZM27.2192 29.9894V15.9913H23.2192V29.9894H27.2192ZM27.2192 15.9938C27.2181 16.8205 26.5483 17.4903 25.7217 17.4913L25.7166 13.4913C24.3381 13.4931 23.221 14.6102 23.2192 15.9887L27.2192 15.9938ZM25.7191 17.4913H28.7187V13.4913H25.7191V17.4913ZM28.7162 17.4913C27.8896 17.4903 27.2197 16.8205 27.2187 15.9938L31.2186 15.9887C31.2169 14.6102 30.0998 13.4931 28.7213 13.4913L28.7162 17.4913ZM27.2187 15.9913V29.9894H31.2187V15.9913H27.2187ZM29.2187 31.9894H29.2187V27.9894H29.2187V31.9894Z" fill="#2E2C33" mask="url(#path-7-inside-4_1_40)"/>
<mask id="path-9-inside-5_1_40" fill="white">
<path d="M24.9844 6.98193C25.9003 8.0128 27.4013 8.28593 28.6216 7.64371C29.8419 7.0015 30.4666 5.60962 30.1354 4.27099C29.8043 2.93237 28.6025 1.99242 27.2236 1.99324C26.2225 1.99247 25.2871 2.49151 24.7304 3.32348C24.1736 4.15546 24.0689 5.21047 24.4514 6.1356L21.4639 8.00302C20.9264 7.39367 20.1637 7.02974 19.3518 6.99517C18.54 6.9606 17.7492 7.25851 17.1618 7.82L13.8897 5.3659C14.5815 4.02786 14.1735 2.3843 12.9363 1.52508C11.6991 0.665859 10.0165 0.857552 9.00428 1.97308C7.99209 3.08861 7.96432 4.78186 8.93937 5.92996L4.74802 10.9108C3.40406 10.12 1.67829 10.4909 0.777887 11.764C-0.122519 13.0372 0.102685 14.7879 1.29608 15.7916C2.48947 16.7954 4.25285 16.7174 5.35292 15.6121C6.45298 14.5069 6.5227 12.7431 5.51332 11.5545L9.70468 6.57365C10.8555 7.25822 12.3216 7.09102 13.2888 6.16489L16.5609 8.61899C15.9241 9.85251 16.2171 11.3619 17.2693 12.2675C18.3214 13.1732 19.8577 13.2382 20.9826 12.4248C22.1076 11.6114 22.5272 10.1322 21.997 8.84923L24.9844 6.98193ZM27.2236 2.99312C28.328 2.99312 29.2233 3.88843 29.2233 4.99283C29.222 6.0967 28.3275 6.9913 27.2236 6.99253C26.1192 6.99253 25.2239 6.09723 25.2239 4.99283C25.2239 3.88843 26.1191 2.99312 27.2236 2.99312ZM3.22684 15.4915C2.12243 15.4915 1.22712 14.5961 1.22712 13.4917C1.22712 12.3873 2.12243 11.492 3.22684 11.492C4.33124 11.492 5.22655 12.3873 5.22655 13.4917C5.22526 14.5956 4.33071 15.4902 3.22684 15.4915ZM11.2257 5.99271C10.1213 5.99271 9.22603 5.0974 9.22603 3.993C9.22603 2.8886 10.1213 1.99329 11.2257 1.99329C12.3301 1.99329 13.2255 2.8886 13.2255 3.993C13.2242 5.09687 12.3296 5.99148 11.2257 5.99271ZM19.2246 11.9919C18.1202 11.9919 17.2249 11.0966 17.2249 9.99218C17.2249 8.88778 18.1202 7.99248 19.2246 7.99248C20.329 7.99248 21.2244 8.88778 21.2244 9.99218C21.2231 11.0961 20.3286 11.9907 19.2246 11.9919Z"/>
</mask>
<path d="M24.9844 6.98193C25.9003 8.0128 27.4013 8.28593 28.6216 7.64371C29.8419 7.0015 30.4666 5.60962 30.1354 4.27099C29.8043 2.93237 28.6025 1.99242 27.2236 1.99324C26.2225 1.99247 25.2871 2.49151 24.7304 3.32348C24.1736 4.15546 24.0689 5.21047 24.4514 6.1356L21.4639 8.00302C20.9264 7.39367 20.1637 7.02974 19.3518 6.99517C18.54 6.9606 17.7492 7.25851 17.1618 7.82L13.8897 5.3659C14.5815 4.02786 14.1735 2.3843 12.9363 1.52508C11.6991 0.665859 10.0165 0.857552 9.00428 1.97308C7.99209 3.08861 7.96432 4.78186 8.93937 5.92996L4.74802 10.9108C3.40406 10.12 1.67829 10.4909 0.777887 11.764C-0.122519 13.0372 0.102685 14.7879 1.29608 15.7916C2.48947 16.7954 4.25285 16.7174 5.35292 15.6121C6.45298 14.5069 6.5227 12.7431 5.51332 11.5545L9.70468 6.57365C10.8555 7.25822 12.3216 7.09102 13.2888 6.16489L16.5609 8.61899C15.9241 9.85251 16.2171 11.3619 17.2693 12.2675C18.3214 13.1732 19.8577 13.2382 20.9826 12.4248C22.1076 11.6114 22.5272 10.1322 21.997 8.84923L24.9844 6.98193ZM27.2236 2.99312C28.328 2.99312 29.2233 3.88843 29.2233 4.99283C29.222 6.0967 28.3275 6.9913 27.2236 6.99253C26.1192 6.99253 25.2239 6.09723 25.2239 4.99283C25.2239 3.88843 26.1191 2.99312 27.2236 2.99312ZM3.22684 15.4915C2.12243 15.4915 1.22712 14.5961 1.22712 13.4917C1.22712 12.3873 2.12243 11.492 3.22684 11.492C4.33124 11.492 5.22655 12.3873 5.22655 13.4917C5.22526 14.5956 4.33071 15.4902 3.22684 15.4915ZM11.2257 5.99271C10.1213 5.99271 9.22603 5.0974 9.22603 3.993C9.22603 2.8886 10.1213 1.99329 11.2257 1.99329C12.3301 1.99329 13.2255 2.8886 13.2255 3.993C13.2242 5.09687 12.3296 5.99148 11.2257 5.99271ZM19.2246 11.9919C18.1202 11.9919 17.2249 11.0966 17.2249 9.99218C17.2249 8.88778 18.1202 7.99248 19.2246 7.99248C20.329 7.99248 21.2244 8.88778 21.2244 9.99218C21.2231 11.0961 20.3286 11.9907 19.2246 11.9919Z" fill="#2E2C33"/>
<path d="M24.9844 6.98193L26.4795 5.65357L25.3572 4.39033L23.9243 5.28598L24.9844 6.98193ZM27.2236 1.99324L27.2221 3.99324L27.2248 3.99324L27.2236 1.99324ZM24.7304 3.32348L26.3925 4.43586L26.3925 4.43577L24.7304 3.32348ZM24.4514 6.1356L25.5115 7.83154L26.9461 6.93483L26.2997 5.37142L24.4514 6.1356ZM21.4639 8.00302L19.9641 9.32607L21.0859 10.5979L22.524 9.69896L21.4639 8.00302ZM17.1618 7.82L15.9618 9.42L17.3183 10.4373L18.5439 9.26565L17.1618 7.82ZM13.8897 5.3659L12.1131 4.44738L11.3359 5.95057L12.6897 6.9659L13.8897 5.3659ZM8.93937 5.92996L10.4697 7.21769L11.5583 5.92403L10.4638 4.63532L8.93937 5.92996ZM4.74802 10.9108L3.73376 12.6345L5.19024 13.4915L6.2783 12.1985L4.74802 10.9108ZM5.51332 11.5545L3.98304 10.2668L2.89449 11.5604L3.98883 12.8491L5.51332 11.5545ZM9.70468 6.57365L10.7272 4.85478L9.26775 3.98662L8.17439 5.28592L9.70468 6.57365ZM13.2888 6.16489L14.4888 4.56489L13.1312 3.5467L11.9055 4.72038L13.2888 6.16489ZM16.5609 8.61899L18.3381 9.53647L19.1139 8.03371L17.7609 7.01899L16.5609 8.61899ZM21.997 8.84923L20.9369 7.15328L19.5025 8.04987L20.1486 9.61317L21.997 8.84923ZM29.2233 4.99283L31.2233 4.99516V4.99283H29.2233ZM27.2236 6.99253V8.99253L27.2258 8.99253L27.2236 6.99253ZM3.22684 15.4915V17.4915L3.22917 17.4914L3.22684 15.4915ZM5.22655 13.4917L7.22655 13.4941V13.4917H5.22655ZM11.2257 5.99271V7.99271L11.228 7.99271L11.2257 5.99271ZM13.2255 3.993L15.2255 3.99523V3.993H13.2255ZM19.2246 11.9919V13.9919L19.2269 13.9919L19.2246 11.9919ZM21.2244 9.99218L23.2244 9.99441V9.99218H21.2244ZM23.4892 8.31028C25.0161 10.0289 27.5186 10.4843 29.553 9.41357L27.6901 5.87385C27.284 6.08759 26.7844 5.9967 26.4795 5.65357L23.4892 8.31028ZM29.553 9.41357C31.5875 8.34288 32.6291 6.02237 32.0769 3.79066L28.194 4.75132C28.3042 5.19686 28.0963 5.66012 27.6901 5.87385L29.553 9.41357ZM32.0769 3.79066C31.5247 1.55887 29.5213 -0.00813061 27.2224 -0.00676322L27.2248 3.99324C27.6838 3.99296 28.0838 4.30586 28.194 4.75132L32.0769 3.79066ZM27.2251 -0.00676304C25.5561 -0.00803274 23.9965 0.823952 23.0682 2.21119L26.3925 4.43577C26.5777 4.15906 26.8889 3.99298 27.2221 3.99324L27.2251 -0.00676304ZM23.0683 2.21111C22.1399 3.59827 21.9654 5.35732 22.6032 6.89978L26.2997 5.37142C26.1724 5.06363 26.2072 4.71265 26.3925 4.43586L23.0683 2.21111ZM23.3914 4.43966L20.4038 6.30708L22.524 9.69896L25.5115 7.83154L23.3914 4.43966ZM22.9638 6.67997C22.0661 5.66237 20.7925 5.0547 19.4369 4.99698L19.2668 8.99336C19.5348 9.00477 19.7867 9.12497 19.9641 9.32607L22.9638 6.67997ZM19.4369 4.99698C18.0811 4.93925 16.7605 5.43677 15.7798 6.37434L18.5439 9.26565C18.7378 9.08026 18.9989 8.98195 19.2668 8.99336L19.4369 4.99698ZM18.3618 6.22L15.0897 3.7659L12.6897 6.9659L15.9618 9.42L18.3618 6.22ZM15.6663 6.28442C16.8194 4.0541 16.1393 1.31453 14.0771 -0.117637L11.7954 3.16779C12.2077 3.45406 12.3436 4.00162 12.1131 4.44738L15.6663 6.28442ZM14.0771 -0.117637C12.0149 -1.54978 9.21031 -1.2303 7.52313 0.629142L10.4854 3.31702C10.8226 2.94541 11.3832 2.8815 11.7954 3.16779L14.0771 -0.117637ZM7.52313 0.629142C5.83598 2.48854 5.78968 5.31089 7.41494 7.22461L10.4638 4.63532C10.139 4.25283 10.1482 3.68869 10.4854 3.31702L7.52313 0.629142ZM7.40909 4.64224L3.21773 9.62308L6.2783 12.1985L10.4697 7.21769L7.40909 4.64224ZM5.76227 9.18707C3.52217 7.86898 0.645752 8.48722 -0.855003 10.6092L2.41078 12.9189C2.71084 12.4946 3.28594 12.3711 3.73376 12.6345L5.76227 9.18707ZM-0.855003 10.6092C-2.35574 12.7312 -1.98041 15.6492 0.00871931 17.3222L2.58344 14.2611C2.18578 13.9266 2.1107 13.3432 2.41078 12.9189L-0.855003 10.6092ZM0.00871931 17.3222C1.9978 18.9952 4.93691 18.8652 6.77043 17.023L3.9354 14.2012C3.56879 14.5696 2.98115 14.5956 2.58344 14.2611L0.00871931 17.3222ZM6.77043 17.023C8.60401 15.1809 8.72017 12.2411 7.03782 10.2599L3.98883 12.8491C4.32523 13.2452 4.30196 13.833 3.9354 14.2012L6.77043 17.023ZM7.04361 12.8422L11.235 7.86137L8.17439 5.28592L3.98304 10.2668L7.04361 12.8422ZM8.68218 8.29251C10.6055 9.4366 13.0557 9.15716 14.672 7.6094L11.9055 4.72038C11.5876 5.02487 11.1055 5.07984 10.7272 4.85478L8.68218 8.29251ZM12.0888 7.76489L15.3609 10.219L17.7609 7.01899L14.4888 4.56489L12.0888 7.76489ZM14.7838 7.70151C13.7222 9.75771 14.2107 12.2738 15.9646 13.7834L18.574 10.7517C18.2236 10.4501 18.126 9.94732 18.3381 9.53647L14.7838 7.70151ZM15.9646 13.7834C17.7185 15.293 20.2793 15.4014 22.1545 14.0455L19.8108 10.8041C19.4361 11.075 18.9244 11.0533 18.574 10.7517L15.9646 13.7834ZM22.1545 14.0455C24.0297 12.6896 24.7293 10.224 23.8453 8.0853L20.1486 9.61317C20.3252 10.0405 20.1855 10.5331 19.8108 10.8041L22.1545 14.0455ZM23.0571 10.5452L26.0445 8.67788L23.9243 5.28598L20.9369 7.15328L23.0571 10.5452ZM27.2236 4.99312L27.2233 4.99283H31.2233C31.2233 2.78385 29.4326 0.993119 27.2236 0.993119V4.99312ZM27.2233 4.99049C27.2233 4.99324 27.2231 4.99386 27.2232 4.99301C27.2234 4.99228 27.2237 4.99141 27.224 4.9907C27.2245 4.98951 27.2243 4.99034 27.2227 4.99197C27.2211 4.9936 27.2203 4.99372 27.2215 4.99321C27.2222 4.99289 27.2231 4.99262 27.2238 4.99247C27.2247 4.99229 27.2241 4.99253 27.2214 4.99253L27.2258 8.99253C29.4326 8.99007 31.2207 7.20169 31.2233 4.99516L27.2233 4.99049ZM27.2236 4.99253L27.2239 4.99283H23.2239C23.2239 7.2018 25.0146 8.99253 27.2236 8.99253V4.99253ZM27.2239 4.99283L27.2236 4.99312V0.993119C25.0145 0.993119 23.2239 2.78389 23.2239 4.99283H27.2239ZM3.22684 13.4915L3.22712 13.4917H-0.772876C-0.772876 15.7007 1.01787 17.4914 3.22684 17.4914V13.4915ZM3.22712 13.4917L3.22684 13.492V9.49204C1.01787 9.49204 -0.772876 11.2828 -0.772876 13.4917H3.22712ZM3.22684 13.492L3.22655 13.4917H7.22655C7.22655 11.2828 5.4358 9.49204 3.22684 9.49204V13.492ZM3.22655 13.4894C3.22654 13.4922 3.2263 13.4928 3.22647 13.4919C3.22663 13.4912 3.2269 13.4903 3.2272 13.4896C3.22771 13.4884 3.22758 13.4892 3.22595 13.4909C3.22432 13.4925 3.2235 13.4926 3.22469 13.4921C3.22541 13.4918 3.22628 13.4915 3.22702 13.4914C3.22787 13.4912 3.22725 13.4914 3.2245 13.4915L3.22917 17.4914C5.43579 17.4889 7.22397 15.7007 7.22655 13.4941L3.22655 13.4894ZM11.2257 3.99271L11.226 3.993H7.22603C7.22603 6.20198 9.01677 7.99271 11.2257 7.99271V3.99271ZM11.226 3.993L11.2257 3.99329V-0.00670505C9.01677 -0.00670505 7.22603 1.78403 7.22603 3.993H11.226ZM11.2257 3.99329L11.2255 3.993H15.2255C15.2255 1.78403 13.4347 -0.00670505 11.2257 -0.00670505V3.99329ZM11.2255 3.99077C11.2254 3.9935 11.2252 3.99411 11.2254 3.99324C11.2255 3.9925 11.2258 3.99162 11.2261 3.99089C11.2266 3.98969 11.2265 3.99051 11.2249 3.99213C11.2232 3.99376 11.2224 3.99388 11.2236 3.99338C11.2244 3.99307 11.2252 3.99279 11.226 3.99264C11.2268 3.99246 11.2262 3.99271 11.2235 3.99271L11.228 7.99271C13.4347 7.99025 15.223 6.20194 15.2255 3.99523L11.2255 3.99077ZM19.2246 9.99189L19.2249 9.99218H15.2249C15.2249 12.2012 17.0157 13.9919 19.2246 13.9919V9.99189ZM19.2249 9.99218L19.2246 9.99247V5.99248C17.0157 5.99248 15.2249 7.78321 15.2249 9.99218H19.2249ZM19.2246 9.99247L19.2244 9.99218H23.2244C23.2244 7.78321 21.4336 5.99248 19.2246 5.99248V9.99247ZM19.2244 9.98995C19.2244 9.99269 19.2241 9.99331 19.2243 9.99245C19.2244 9.9917 19.2247 9.99083 19.225 9.9901C19.2255 9.9889 19.2254 9.98971 19.2238 9.99132C19.2222 9.99294 19.2214 9.99306 19.2226 9.99255C19.2233 9.99224 19.2242 9.99197 19.2249 9.99182C19.2258 9.99164 19.2252 9.99189 19.2224 9.99189L19.2269 13.9919C21.4337 13.9894 23.2219 12.2011 23.2244 9.99441L19.2244 9.98995Z" fill="#2E2C33" mask="url(#path-9-inside-5_1_40)"/>
</g>
<defs>
<clipPath id="clip0_1_40">
<rect width="30" height="30" fill="white" transform="translate(0.219971 0.989258)"/>
</clipPath>
</defs>
</svg>
