<svg width="25" height="25" viewBox="0 0 25 25" fill="none" xmlns="http://www.w3.org/2000/svg">
<path d="M21.22 19.042V5.04199C21.22 4.51156 21.0093 4.00285 20.6342 3.62778C20.2591 3.25271 19.7504 3.04199 19.22 3.04199H5.21997C4.68954 3.04199 4.18083 3.25271 3.80576 3.62778C3.43068 4.00285 3.21997 4.51156 3.21997 5.04199V19.042C3.21997 19.5724 3.43068 20.0811 3.80576 20.4562C4.18083 20.8313 4.68954 21.042 5.21997 21.042H19.22C19.7504 21.042 20.2591 20.8313 20.6342 20.4562C21.0093 20.0811 21.22 19.5724 21.22 19.042ZM9.21997 18.042H7.21997V12.042H9.21997V18.042ZM13.22 18.042H11.22V7.04199H13.22V18.042ZM17.22 18.042H15.22V10.042H17.22V18.042Z" fill="#C92627"/>
</svg>
