<svg width="25" height="25" viewBox="0 0 25 25" fill="none" xmlns="http://www.w3.org/2000/svg">
<path d="M10.3931 17.512L12.3031 15.602L14.2131 17.512C14.5031 17.802 14.9831 17.802 15.2731 17.512C15.5631 17.222 15.5631 16.742 15.2731 16.452L13.3631 14.542L15.2731 12.632C15.5631 12.342 15.5631 11.862 15.2731 11.572C15.132 11.4325 14.9415 11.3543 14.7431 11.3543C14.5447 11.3543 14.3542 11.4325 14.2131 11.572L12.3031 13.482L10.3931 11.572C10.252 11.4325 10.0615 11.3543 9.8631 11.3543C9.66467 11.3543 9.47424 11.4325 9.3331 11.572C9.0431 11.862 9.0431 12.342 9.3331 12.632L11.2431 14.542L9.3331 16.452C9.0431 16.742 9.0431 17.222 9.3331 17.512C9.6231 17.802 10.1031 17.802 10.3931 17.512ZM19.5531 4.04199H18.5531V3.04199C18.5531 2.49199 18.1031 2.04199 17.5531 2.04199C17.0031 2.04199 16.5531 2.49199 16.5531 3.04199V4.04199H8.5531V3.04199C8.5531 2.49199 8.1031 2.04199 7.5531 2.04199C7.0031 2.04199 6.5531 2.49199 6.5531 3.04199V4.04199H5.5531C4.4431 4.04199 3.5631 4.94199 3.5631 6.04199L3.5531 20.042C3.5531 20.5724 3.76381 21.0811 4.13889 21.4562C4.51396 21.8313 5.02267 22.042 5.5531 22.042H19.5531C20.6531 22.042 21.5531 21.142 21.5531 20.042V6.04199C21.5531 4.94199 20.6531 4.04199 19.5531 4.04199ZM18.5531 20.042H6.5531C6.0031 20.042 5.5531 19.592 5.5531 19.042V9.04199H19.5531V19.042C19.5531 19.592 19.1031 20.042 18.5531 20.042Z" fill="#C92627"/>
</svg>
