<svg width="25" height="25" viewBox="0 0 25 25" fill="none" xmlns="http://www.w3.org/2000/svg">
<path d="M9.3866 13.292C9.3866 13.2257 9.41294 13.1621 9.45982 13.1152C9.5067 13.0683 9.57029 13.042 9.6366 13.042H10.8866V14.542H9.3866V13.292ZM9.3866 16.042H10.8866V17.542H9.6366C9.57029 17.542 9.5067 17.5157 9.45982 17.4688C9.41294 17.4219 9.3866 17.3583 9.3866 17.292V16.042ZM16.3866 17.292V16.042H12.3866V17.542H16.1366C16.2029 17.542 16.2665 17.5157 16.3134 17.4688C16.3603 17.4219 16.3866 17.3583 16.3866 17.292ZM12.3866 13.042V14.542H16.3866V13.292C16.3866 13.2257 16.3603 13.1621 16.3134 13.1152C16.2665 13.0683 16.2029 13.042 16.1366 13.042H12.3866ZM12.8866 8.04199V2.04199H6.8866C6.35616 2.04199 5.84746 2.25271 5.47238 2.62778C5.09731 3.00285 4.8866 3.51156 4.8866 4.04199V20.042C4.8866 20.5724 5.09731 21.0811 5.47238 21.4562C5.84746 21.8313 6.35616 22.042 6.8866 22.042H18.8866C19.417 22.042 19.9257 21.8313 20.3008 21.4562C20.6759 21.0811 20.8866 20.5724 20.8866 20.042V10.042H14.8866C14.3562 10.042 13.8475 9.83128 13.4724 9.45621C13.0973 9.08113 12.8866 8.57243 12.8866 8.04199ZM9.6366 11.542H16.1366C17.1026 11.542 17.8866 12.326 17.8866 13.292V17.292C17.8866 17.7561 17.7022 18.2012 17.374 18.5294C17.0458 18.8576 16.6007 19.042 16.1366 19.042H9.6366C9.17247 19.042 8.72735 18.8576 8.39916 18.5294C8.07097 18.2012 7.8866 17.7561 7.8866 17.292V13.292C7.8866 12.326 8.6706 11.542 9.6366 11.542ZM14.3866 8.04199V2.54199L20.3866 8.54199H14.8866C14.754 8.54199 14.6268 8.48931 14.533 8.39555C14.4393 8.30178 14.3866 8.1746 14.3866 8.04199Z" fill="#C92627"/>
</svg>
