<svg width="27" height="27" viewBox="0 0 27 27" fill="none" xmlns="http://www.w3.org/2000/svg">
<path d="M9.15698 5.72949C9.80345 5.72949 10.4234 5.9863 10.8806 6.44342C11.3377 6.90054 11.5945 7.52053 11.5945 8.16699V17.917C11.5945 18.5635 11.3377 19.1834 10.8806 19.6406C10.4234 20.0977 9.80345 20.3545 9.15698 20.3545C8.51052 20.3545 7.89053 20.0977 7.43341 19.6406C6.97629 19.1834 6.71948 18.5635 6.71948 17.917V8.16699C6.71948 7.52053 6.97629 6.90054 7.43341 6.44342C7.89053 5.9863 8.51052 5.72949 9.15698 5.72949ZM17.282 5.72949C17.9284 5.72949 18.5484 5.9863 19.0056 6.44342C19.4627 6.90054 19.7195 7.52053 19.7195 8.16699V17.917C19.7195 18.5635 19.4627 19.1834 19.0056 19.6406C18.5484 20.0977 17.9284 20.3545 17.282 20.3545C16.6355 20.3545 16.0155 20.0977 15.5584 19.6406C15.1013 19.1834 14.8445 18.5635 14.8445 17.917V8.16699C14.8445 7.52053 15.1013 6.90054 15.5584 6.44342C16.0155 5.9863 16.6355 5.72949 17.282 5.72949Z" fill="#C92627"/>
</svg>
