<svg width="95" height="95" viewBox="0 0 95 95" fill="none" xmlns="http://www.w3.org/2000/svg">
<g clip-path="url(#clip0_1_919)">
<path fill-rule="evenodd" clip-rule="evenodd" d="M0.448626 90.2269C-0.722947 91.3985 -0.722947 93.298 0.448626 94.4696C1.6202 95.6411 3.51969 95.6411 4.69127 94.4696L16.6826 82.4782H23.5842C24.3447 82.4782 24.9612 81.8618 24.9612 81.1013V74.1996L27.5603 71.6005H36.5062C37.3926 72.29 38.5048 72.7021 39.7121 72.7021C42.5973 72.7021 44.9446 70.3548 44.9446 67.4698C44.9446 66.2625 44.5325 65.1503 43.843 64.264V55.3178L48.9707 50.1901L56.3404 54.4449C56.8895 54.762 57.4897 54.9125 58.0824 54.9125C59.1944 54.9125 60.2785 54.381 60.9489 53.4244L65.0165 55.7728C65.0171 55.7731 65.0176 55.7734 65.0182 55.7736C65.0188 55.7738 65.0194 55.7741 65.0199 55.7744L68.9451 60.2114C69.2078 60.5084 69.5842 60.676 69.9763 60.676C69.9926 60.676 70.0089 60.6757 70.0252 60.6751C70.0549 60.6741 70.0847 60.6721 70.1144 60.6691C70.5551 60.6248 70.9475 60.3712 71.1689 59.9875L79.2592 45.9753C79.4806 45.5916 79.504 45.125 79.3221 44.7213C79.1402 44.3176 78.7752 44.0258 78.3411 43.9375L77.7194 43.8111C78.6165 42.871 79.417 41.8107 80.0947 40.6366C81.1155 38.8681 80.5074 36.5985 78.7389 35.5774L69.1306 30.0302L94.4613 4.69956C95.6328 3.52799 95.6328 1.6285 94.4613 0.456929C93.2897 -0.714644 91.3902 -0.714648 90.2186 0.456924L63.7511 26.9245L38.7248 12.476C37.8681 11.9814 36.87 11.8499 35.9144 12.1061C34.9589 12.362 34.1602 12.9749 33.6656 13.8316L23.4958 31.4458C23.0289 32.2546 22.9048 33.1967 23.1466 34.0986C23.3883 35.0006 23.9669 35.7545 24.7756 36.2214L33.5774 41.3031C32.4932 44.2778 33.3041 47.6221 35.5812 49.7743V55.0944L27.3366 63.339H24.9612V53.8382C24.9612 53.0777 24.3447 52.4613 23.5842 52.4613H11.4669C10.7064 52.4613 10.0899 53.0777 10.0899 53.8382V80.5856L0.448626 90.2269ZM19.4366 79.7243H22.2071V76.9537L19.4366 79.7243ZM22.2071 68.4684L12.8437 77.8318V55.215H22.2071V68.4684ZM30.3143 68.8465L33.0681 66.0927H34.6647C34.5448 66.5317 34.4795 66.9931 34.4795 67.4696C34.4795 67.9462 34.5448 68.4076 34.6647 68.8465H30.3143ZM38.335 60.8258L41.0889 58.0719V62.4225C40.65 62.3026 40.1885 62.2373 39.712 62.2373C39.2354 62.2373 38.774 62.3026 38.335 62.4225V60.8258ZM38.9979 51.6777L38.335 52.3406V51.4706C38.5542 51.5498 38.7754 51.6188 38.9979 51.6777ZM50.9868 48.1741L57.7172 52.0598C58.0716 52.2642 58.5263 52.1428 58.7309 51.7882L60.7763 48.2458C59.5929 47.8838 58.432 47.3847 57.3154 46.74L54.2123 44.9485L50.9868 48.1741ZM48.8328 41.8427L45.6072 45.0683L26.1524 33.8364C25.9807 33.7374 25.858 33.5773 25.8067 33.3859C25.7553 33.1944 25.7816 32.9944 25.8807 32.8227L27.7749 29.5422C27.9973 29.7635 28.251 29.9602 28.5354 30.1244L48.8328 41.8427ZM56.2284 42.9325L58.6924 44.355C65.3397 48.1927 73.8711 45.9074 77.7095 39.2596C77.9713 38.8062 77.8153 38.2243 77.362 37.9624L67.1146 32.0462L56.2284 42.9325ZM61.7351 28.9404L50.8488 39.8267L29.9124 27.7394C29.4589 27.4776 29.3029 26.8956 29.5648 26.4422L36.0507 15.2085C36.1776 14.9889 36.3825 14.8318 36.6274 14.7661C36.7092 14.7442 36.7922 14.7334 36.8747 14.7334C37.0393 14.7334 37.2018 14.7765 37.3481 14.861L61.7351 28.9404ZM62.3387 51.047L65.2007 52.6993L67.4098 48.8731C66.8183 48.9367 66.2226 48.9708 65.625 48.9708C64.9537 48.9708 64.2805 48.9289 63.609 48.847L62.3387 51.047ZM67.4311 54.3438L69.74 56.9539L75.9174 46.2546L75.0404 46.0763C73.8011 46.9178 72.46 47.5842 71.057 48.0641L67.4311 54.3438Z" fill="white"/>
</g>
<defs>
<clipPath id="clip0_1_919">
<rect width="94" height="94" fill="white" transform="translate(0.219971 0.698242)"/>
</clipPath>
</defs>
</svg>
