<svg width="41" height="41" viewBox="0 0 41 41" fill="none" xmlns="http://www.w3.org/2000/svg">
<g clip-path="url(#clip0_1_32)">
<rect x="5.53247" y="6.48926" width="29.1875" height="29" rx="2.5" stroke="#2E2C33"/>
<rect x="8.84497" y="13.9893" width="22.6875" height="18.25" rx="2.5" stroke="#2E2C33"/>
<g clip-path="url(#clip1_1_32)">
<path d="M20.983 23.1023L25.4635 18.6217C25.5521 18.5183 25.5984 18.3853 25.5931 18.2493C25.5878 18.1133 25.5315 17.9843 25.4352 17.888C25.3389 17.7918 25.2099 17.7354 25.0739 17.7301C24.9379 17.7249 24.8049 17.7711 24.7015 17.8597L20.2209 22.3402L15.7403 17.8543C15.6386 17.7525 15.5005 17.6953 15.3566 17.6953C15.2127 17.6953 15.0746 17.7525 14.9729 17.8543C14.8711 17.956 14.8139 18.0941 14.8139 18.238C14.8139 18.3819 14.8711 18.52 14.9729 18.6217L19.4588 23.1023L14.9729 27.5829C14.9163 27.6313 14.8703 27.691 14.8379 27.758C14.8054 27.8251 14.7872 27.8981 14.7843 27.9725C14.7815 28.047 14.794 28.1212 14.8212 28.1905C14.8483 28.2599 14.8896 28.3229 14.9422 28.3756C14.9949 28.4282 15.0579 28.4695 15.1273 28.4966C15.1966 28.5238 15.2708 28.5363 15.3453 28.5335C15.4197 28.5306 15.4927 28.5124 15.5598 28.4799C15.6269 28.4475 15.6865 28.4015 15.7349 28.3449L20.2209 23.8644L24.7015 28.3449C24.8049 28.4335 24.9379 28.4798 25.0739 28.4745C25.2099 28.4693 25.3389 28.4129 25.4352 28.3166C25.5315 28.2204 25.5878 28.0913 25.5931 27.9553C25.5984 27.8193 25.5521 27.6863 25.4635 27.5829L20.983 23.1023Z" fill="#2E2C33"/>
</g>
<line x1="11.8762" y1="5.80176" x2="11.8762" y2="3.65576" stroke="#2E2C33" stroke-width="2" stroke-linecap="round"/>
<line x1="28.6262" y1="5.80176" x2="28.6262" y2="3.65576" stroke="#2E2C33" stroke-width="2" stroke-linecap="round"/>
</g>
<defs>
<clipPath id="clip0_1_32">
<rect width="40" height="40" fill="white" transform="translate(0.219971 0.989258)"/>
</clipPath>
<clipPath id="clip1_1_32">
<rect width="36" height="36" fill="white" transform="translate(3.21997 6.23926)"/>
</clipPath>
</defs>
</svg>
