<svg width="21" height="21" viewBox="0 0 21 21" fill="none" xmlns="http://www.w3.org/2000/svg">
<g clip-path="url(#clip0_1_101)">
<path d="M18.6894 9.41106L18.095 9.23328H13.2894C13.6054 9.82234 13.7196 10.4988 13.6143 11.1589C13.509 11.819 13.1902 12.4264 12.7066 12.888C12.2231 13.3496 11.6015 13.6398 10.9372 13.7143C10.2729 13.7887 9.60249 13.6433 9.02876 13.3002C8.45503 12.9572 8.00963 12.4354 7.76083 11.815C7.51203 11.1945 7.47355 10.5096 7.65131 9.86522C7.82906 9.22082 8.21323 8.65249 8.74493 8.24733C9.27663 7.84219 9.92652 7.62258 10.595 7.62217C10.7153 7.61509 10.8358 7.61509 10.9561 7.62217C10.8398 7.1314 10.9091 6.61497 11.1506 6.17217L12.3117 4.16106L11.8339 2.58884C11.8148 2.52234 11.7758 2.46328 11.7222 2.41958C11.6686 2.37588 11.6029 2.34965 11.5339 2.34439H9.65611C9.58396 2.34473 9.51381 2.36808 9.45585 2.41104C9.3979 2.45401 9.35517 2.51435 9.33388 2.58328L8.77833 4.41661C8.31834 4.55216 7.87486 4.73849 7.45611 4.97217L5.78944 4.07217C5.72506 4.03798 5.65137 4.02546 5.57932 4.03647C5.50726 4.04748 5.44067 4.08143 5.38944 4.13328L4.03944 5.44995C3.98759 5.50118 3.95364 5.56777 3.94263 5.63982C3.93162 5.71188 3.94414 5.78557 3.97833 5.84995L4.87833 7.51661C4.64503 7.93361 4.4587 8.3752 4.32277 8.83328L2.48388 9.38883C2.41495 9.41012 2.35461 9.45285 2.31165 9.51081C2.26868 9.56876 2.24533 9.63891 2.245 9.71106V11.5888C2.24533 11.661 2.26868 11.7311 2.31165 11.7891C2.35461 11.847 2.41495 11.8898 2.48388 11.9111L4.33388 12.4666C4.4713 12.9171 4.65759 13.3511 4.88944 13.7611L3.97833 15.5055C3.94414 15.5699 3.93162 15.6436 3.94263 15.7156C3.95364 15.7877 3.98759 15.8543 4.03944 15.9055L5.36722 17.2333C5.41845 17.2851 5.48504 17.3191 5.5571 17.3301C5.62915 17.3411 5.70284 17.3286 5.76722 17.2944L7.48388 16.3777C7.88998 16.5968 8.31834 16.7719 8.76166 16.8999L9.31722 18.7722C9.3385 18.8411 9.38123 18.9014 9.43919 18.9444C9.49714 18.9874 9.5673 19.0107 9.63944 19.0111H11.5172C11.5894 19.0107 11.6595 18.9874 11.7175 18.9444C11.7754 18.9014 11.8182 18.8411 11.8394 18.7722L12.395 16.8944C12.8345 16.7657 13.2591 16.5906 13.6617 16.3722L15.3894 17.2944C15.4538 17.3286 15.5275 17.3411 15.5996 17.3301C15.6716 17.3191 15.7382 17.2851 15.7894 17.2333L17.1172 15.9055C17.1691 15.8543 17.203 15.7877 17.214 15.7156C17.225 15.6436 17.2125 15.5699 17.1783 15.5055L16.2561 13.7833C16.4769 13.3792 16.6538 12.9527 16.7839 12.5111L18.6561 11.9555C18.725 11.9342 18.7854 11.8915 18.8283 11.8335C18.8713 11.7756 18.8947 11.7054 18.895 11.6333V9.73883C18.8983 9.66975 18.8803 9.60132 18.8436 9.54273C18.8068 9.48414 18.7531 9.43819 18.6894 9.41106Z" fill="#2E2C33"/>
<path d="M15.5117 1.31106L12.3339 6.78884C12.2599 6.89735 12.2175 7.02422 12.2113 7.15538C12.205 7.28654 12.2352 7.41687 12.2985 7.53192C12.3618 7.64697 12.4557 7.74226 12.5698 7.80722C12.6839 7.87218 12.8138 7.90427 12.945 7.89995H19.3061C19.4373 7.90427 19.5672 7.87218 19.6813 7.80722C19.7954 7.74226 19.8893 7.64697 19.9526 7.53192C20.0159 7.41687 20.0461 7.28654 20.0398 7.15538C20.0336 7.02422 19.9911 6.89735 19.9172 6.78884L16.7394 1.31106C16.6768 1.20387 16.5871 1.11495 16.4794 1.05316C16.3717 0.991375 16.2497 0.958862 16.1255 0.958862C16.0014 0.958862 15.8794 0.991375 15.7717 1.05316C15.664 1.11495 15.5743 1.20387 15.5117 1.31106Z" fill="#2E2C33"/>
</g>
<defs>
<clipPath id="clip0_1_101">
<rect width="20" height="20" fill="white" transform="translate(0.594971 0.677734)"/>
</clipPath>
</defs>
</svg>
