<svg width="24" height="24" viewBox="0 0 24 24" fill="none" xmlns="http://www.w3.org/2000/svg">
<path d="M8.50122 5.20898C9.07309 5.20898 9.62154 5.43616 10.0259 5.84054C10.4303 6.24491 10.6575 6.79336 10.6575 7.36523V15.9902C10.6575 16.5621 10.4303 17.1106 10.0259 17.5149C9.62154 17.9193 9.07309 18.1465 8.50122 18.1465C7.92935 18.1465 7.3809 17.9193 6.97652 17.5149C6.57215 17.1106 6.34497 16.5621 6.34497 15.9902V7.36523C6.34497 6.79336 6.57215 6.24491 6.97652 5.84054C7.3809 5.43616 7.92935 5.20898 8.50122 5.20898ZM15.6887 5.20898C16.2606 5.20898 16.809 5.43616 17.2134 5.84054C17.6178 6.24491 17.845 6.79336 17.845 7.36523V15.9902C17.845 16.5621 17.6178 17.1106 17.2134 17.5149C16.809 17.9193 16.2606 18.1465 15.6887 18.1465C15.1168 18.1465 14.5684 17.9193 14.164 17.5149C13.7596 17.1106 13.5325 16.5621 13.5325 15.9902V7.36523C13.5325 6.79336 13.7596 6.24491 14.164 5.84054C14.5684 5.43616 15.1168 5.20898 15.6887 5.20898Z" fill="#2E2C33"/>
</svg>
