<svg width="21" height="21" viewBox="0 0 21 21" fill="none" xmlns="http://www.w3.org/2000/svg">
<path d="M11.3316 2.78775C11.0433 2.24275 10.1466 2.24275 9.85831 2.78775L2.35831 16.9544C2.2908 17.0814 2.25733 17.2237 2.26116 17.3674C2.26499 17.5112 2.306 17.6515 2.38019 17.7747C2.45437 17.8979 2.55921 17.9998 2.68447 18.0704C2.80974 18.141 2.95117 18.178 3.09498 18.1777H18.095C18.2387 18.178 18.38 18.1411 18.5052 18.0705C18.6304 17.9999 18.7351 17.8981 18.8092 17.775C18.8834 17.6518 18.9243 17.5116 18.9281 17.368C18.9319 17.2243 18.8983 17.0821 18.8308 16.9552L11.3316 2.78775ZM11.4283 15.6777H9.76164V14.0111H11.4283V15.6777ZM9.76164 12.3444V8.17775H11.4283L11.4291 12.3444H9.76164Z" fill="#2E2C33"/>
</svg>
