<svg width="18" height="18" viewBox="0 0 18 18" fill="none" xmlns="http://www.w3.org/2000/svg">
<path d="M11.22 7.9694C10.8304 7.9694 10.497 7.83057 10.2198 7.5529C9.94214 7.27571 9.8033 6.94232 9.8033 6.55273V3.7194C9.8033 3.32982 9.94214 2.99619 10.2198 2.71853C10.497 2.44133 10.8304 2.30273 11.22 2.30273H14.0533C14.4429 2.30273 14.7765 2.44133 15.0542 2.71853C15.3314 2.99619 15.47 3.32982 15.47 3.7194V6.55273C15.47 6.94232 15.3314 7.27571 15.0542 7.5529C14.7765 7.83057 14.4429 7.9694 14.0533 7.9694H11.22ZM8.38664 6.55273C8.38664 6.94232 8.24804 7.27571 7.97085 7.5529C7.69318 7.83057 7.35955 7.9694 6.96997 7.9694H4.13664C3.74705 7.9694 3.41343 7.83057 3.13576 7.5529C2.85857 7.27571 2.71997 6.94232 2.71997 6.55273V3.7194C2.71997 3.32982 2.85857 2.99619 3.13576 2.71853C3.41343 2.44133 3.74705 2.30273 4.13664 2.30273H6.96997C7.35955 2.30273 7.69318 2.44133 7.97085 2.71853C8.24804 2.99619 8.38664 3.32982 8.38664 3.7194V6.55273ZM9.8033 10.8027C9.8033 10.4132 9.94214 10.0795 10.2198 9.80186C10.497 9.52466 10.8304 9.38607 11.22 9.38607H14.0533C14.4429 9.38607 14.7765 9.52466 15.0542 9.80186C15.3314 10.0795 15.47 10.4132 15.47 10.8027V13.6361C15.47 14.0257 15.3314 14.3593 15.0542 14.6369C14.7765 14.9141 14.4429 15.0527 14.0533 15.0527H11.22C10.8304 15.0527 10.497 14.9141 10.2198 14.6369C9.94214 14.3593 9.8033 14.0257 9.8033 13.6361V10.8027ZM6.96997 9.38607C7.35955 9.38607 7.69318 9.52466 7.97085 9.80186C8.24804 10.0795 8.38664 10.4132 8.38664 10.8027V13.6361C8.38664 14.0257 8.24804 14.3593 7.97085 14.6369C7.69318 14.9141 7.35955 15.0527 6.96997 15.0527H4.13664C3.74705 15.0527 3.41343 14.9141 3.13576 14.6369C2.85857 14.3593 2.71997 14.0257 2.71997 13.6361V10.8027C2.71997 10.4132 2.85857 10.0795 3.13576 9.80186C3.41343 9.52466 3.74705 9.38607 4.13664 9.38607H6.96997Z" fill="#C92627"/>
</svg>
