<svg width="35" height="35" viewBox="0 0 35 35" fill="none" xmlns="http://www.w3.org/2000/svg">
<path d="M5.31999 12.0393C5.77086 12.0393 6.20326 11.8601 6.52208 11.5413C6.84089 11.2225 7.01999 10.7901 7.01999 10.3393C7.01999 9.88838 6.84089 9.45598 6.52208 9.13717C6.20326 8.81836 5.77086 8.63925 5.31999 8.63925C4.86913 8.63925 4.43673 8.81836 4.11791 9.13717C3.7991 9.45598 3.62 9.88838 3.62 10.3393C3.62 10.7901 3.7991 11.2225 4.11791 11.5413C4.43673 11.8601 4.86913 12.0393 5.31999 12.0393ZM10.42 10.3393C10.42 10.1138 10.5095 9.89762 10.669 9.73821C10.8284 9.57881 11.0446 9.48925 11.27 9.48925H29.97C30.1954 9.48925 30.4116 9.57881 30.571 9.73821C30.7304 9.89762 30.82 10.1138 30.82 10.3393C30.82 10.5647 30.7304 10.7809 30.571 10.9403C30.4116 11.0997 30.1954 11.1893 29.97 11.1893H11.27C11.0446 11.1893 10.8284 11.0997 10.669 10.9403C10.5095 10.7809 10.42 10.5647 10.42 10.3393ZM10.42 18.8393C10.42 18.6138 10.5095 18.3976 10.669 18.2382C10.8284 18.0788 11.0446 17.9893 11.27 17.9893H29.97C30.1954 17.9893 30.4116 18.0788 30.571 18.2382C30.7304 18.3976 30.82 18.6138 30.82 18.8393C30.82 19.0647 30.7304 19.2809 30.571 19.4403C30.4116 19.5997 30.1954 19.6893 29.97 19.6893H11.27C11.0446 19.6893 10.8284 19.5997 10.669 19.4403C10.5095 19.2809 10.42 19.0647 10.42 18.8393ZM11.27 26.4893C11.0446 26.4893 10.8284 26.5788 10.669 26.7382C10.5095 26.8976 10.42 27.1138 10.42 27.3393C10.42 27.5647 10.5095 27.7809 10.669 27.9403C10.8284 28.0997 11.0446 28.1893 11.27 28.1893H29.97C30.1954 28.1893 30.4116 28.0997 30.571 27.9403C30.7304 27.7809 30.82 27.5647 30.82 27.3393C30.82 27.1138 30.7304 26.8976 30.571 26.7382C30.4116 26.5788 30.1954 26.4893 29.97 26.4893H11.27ZM7.01999 27.3393C7.01999 27.7901 6.84089 28.2225 6.52208 28.5413C6.20326 28.8601 5.77086 29.0393 5.31999 29.0393C4.86913 29.0393 4.43673 28.8601 4.11791 28.5413C3.7991 28.2225 3.62 27.7901 3.62 27.3393C3.62 26.8884 3.7991 26.456 4.11791 26.1372C4.43673 25.8184 4.86913 25.6393 5.31999 25.6393C5.77086 25.6393 6.20326 25.8184 6.52208 26.1372C6.84089 26.456 7.01999 26.8884 7.01999 27.3393ZM5.31999 20.5393C5.77086 20.5393 6.20326 20.3601 6.52208 20.0413C6.84089 19.7225 7.01999 19.2901 7.01999 18.8393C7.01999 18.3884 6.84089 17.956 6.52208 17.6372C6.20326 17.3184 5.77086 17.1393 5.31999 17.1393C4.86913 17.1393 4.43673 17.3184 4.11791 17.6372C3.7991 17.956 3.62 18.3884 3.62 18.8393C3.62 19.2901 3.7991 19.7225 4.11791 20.0413C4.43673 20.3601 4.86913 20.5393 5.31999 20.5393Z" fill="#C92627"/>
</svg>
