<svg width="23" height="23" viewBox="0 0 23 23" fill="none" xmlns="http://www.w3.org/2000/svg">
<path d="M8.11792 5.71777C8.66493 5.71777 9.18953 5.93507 9.57633 6.32187C9.96312 6.70866 10.1804 7.23326 10.1804 7.78027V16.0303C10.1804 16.5773 9.96312 17.1019 9.57633 17.4887C9.18953 17.8755 8.66493 18.0928 8.11792 18.0928C7.57091 18.0928 7.04631 17.8755 6.65951 17.4887C6.27272 17.1019 6.05542 16.5773 6.05542 16.0303V7.78027C6.05542 7.23326 6.27272 6.70866 6.65951 6.32187C7.04631 5.93507 7.57091 5.71777 8.11792 5.71777ZM14.9929 5.71777C15.5399 5.71777 16.0645 5.93507 16.4513 6.32187C16.8381 6.70866 17.0554 7.23326 17.0554 7.78027V16.0303C17.0554 16.5773 16.8381 17.1019 16.4513 17.4887C16.0645 17.8755 15.5399 18.0928 14.9929 18.0928C14.4459 18.0928 13.9213 17.8755 13.5345 17.4887C13.1477 17.1019 12.9304 16.5773 12.9304 16.0303V7.78027C12.9304 7.23326 13.1477 6.70866 13.5345 6.32187C13.9213 5.93507 14.4459 5.71777 14.9929 5.71777Z" fill="#C92627"/>
</svg>
