<svg width="19" height="19" viewBox="0 0 19 19" fill="none" xmlns="http://www.w3.org/2000/svg">
<path d="M8.38501 2.70273C9.46808 2.70175 10.5271 3.02201 11.4281 3.62301C12.3291 4.22401 13.0317 5.07874 13.4468 6.07908C13.862 7.07941 13.9711 8.18041 13.7604 9.24279C13.5497 10.3052 13.0287 11.2812 12.2632 12.0474C11.4977 12.8136 10.5222 13.3355 9.45997 13.5472C8.39779 13.7588 7.29669 13.6507 6.29598 13.2365C5.29526 12.8222 4.43989 12.1205 3.83806 11.22C3.23624 10.3195 2.91501 9.2608 2.91501 8.17773C2.92158 6.72856 3.49983 5.34054 4.52409 4.31534C5.54835 3.29014 6.93585 2.71062 8.38501 2.70273ZM8.38501 1.67773C7.09943 1.67773 5.84273 2.05895 4.77381 2.77318C3.70489 3.48741 2.87177 4.50257 2.3798 5.69029C1.88783 6.87801 1.7591 8.18495 2.00991 9.44582C2.26071 10.7067 2.87978 11.8649 3.78882 12.7739C4.69786 13.683 5.85605 14.302 7.11693 14.5528C8.3778 14.8036 9.68473 14.6749 10.8725 14.183C12.0602 13.691 13.0753 12.8579 13.7896 11.7889C14.5038 10.72 14.885 9.46331 14.885 8.17773C14.885 6.45383 14.2002 4.80053 12.9812 3.58154C11.7622 2.36255 10.1089 1.67773 8.38501 1.67773Z" fill="#9EA2A1"/>
<path d="M17.72 16.8227L14.035 13.1127L13.325 13.8177L17.01 17.5277C17.0562 17.5743 17.1113 17.6114 17.1719 17.6367C17.2325 17.6621 17.2975 17.6753 17.3632 17.6755C17.4289 17.6757 17.494 17.663 17.5548 17.6381C17.6156 17.6132 17.6708 17.5765 17.7175 17.5302C17.7641 17.4839 17.8011 17.4289 17.8265 17.3683C17.8518 17.3077 17.865 17.2427 17.8652 17.177C17.8655 17.1113 17.8528 17.0462 17.8278 16.9854C17.8029 16.9246 17.7662 16.8693 17.72 16.8227Z" fill="#9EA2A1"/>
</svg>
