<svg width="21" height="21" viewBox="0 0 21 21" fill="none" xmlns="http://www.w3.org/2000/svg">
<path d="M11.9871 18.389H8.95378C8.76372 18.389 8.57936 18.3241 8.43128 18.2049C8.2832 18.0858 8.18028 17.9196 8.13961 17.734L7.80044 16.164C7.34799 15.9657 6.91897 15.7178 6.52128 15.4248L4.99044 15.9123C4.80925 15.9701 4.61374 15.9642 4.43638 15.8955C4.25902 15.8268 4.11049 15.6996 4.01544 15.5348L2.49544 12.909C2.4014 12.7441 2.3661 12.5522 2.39531 12.3646C2.42453 12.177 2.51653 12.005 2.65628 11.8765L3.84378 10.7932C3.78977 10.3024 3.78977 9.80723 3.84378 9.31649L2.65628 8.23565C2.51634 8.10713 2.42421 7.93488 2.39498 7.74714C2.36576 7.5594 2.40119 7.36729 2.49544 7.20232L4.01211 4.57482C4.10715 4.41008 4.25569 4.28281 4.43304 4.21414C4.6104 4.14547 4.80591 4.13954 4.98711 4.19732L6.51794 4.68482C6.72128 4.53482 6.93294 4.39482 7.15128 4.26815C7.36211 4.14982 7.57878 4.04232 7.80044 3.94649L8.14044 2.37815C8.18092 2.19249 8.28364 2.02623 8.43157 1.90694C8.57949 1.78766 8.76375 1.72252 8.95378 1.72232H11.9871C12.1771 1.72252 12.3614 1.78766 12.5093 1.90694C12.6573 2.02623 12.76 2.19249 12.8004 2.37815L13.1438 3.94732C13.5957 4.14671 14.0246 4.39455 14.4229 4.68649L15.9546 4.19899C16.1357 4.14142 16.331 4.14746 16.5082 4.21612C16.6854 4.28478 16.8338 4.41193 16.9288 4.57649L18.4454 7.20399C18.6388 7.54315 18.5721 7.97232 18.2846 8.23649L17.0971 9.31982C17.1511 9.81056 17.1511 10.3057 17.0971 10.7965L18.2846 11.8798C18.5721 12.1448 18.6388 12.5732 18.4454 12.9123L16.9288 15.5398C16.8337 15.7046 16.6852 15.8318 16.5078 15.9005C16.3305 15.9692 16.135 15.9751 15.9538 15.9173L14.4229 15.4298C14.0256 15.7226 13.5968 15.9702 13.1446 16.1682L12.8004 17.734C12.7598 17.9195 12.657 18.0856 12.5091 18.2047C12.3612 18.3238 12.177 18.3888 11.9871 18.389ZM10.4671 6.72232C9.58306 6.72232 8.73521 7.07351 8.11009 7.69863C7.48497 8.32375 7.13378 9.1716 7.13378 10.0557C7.13378 10.9397 7.48497 11.7876 8.11009 12.4127C8.73521 13.0378 9.58306 13.389 10.4671 13.389C11.3512 13.389 12.199 13.0378 12.8241 12.4127C13.4493 11.7876 13.8004 10.9397 13.8004 10.0557C13.8004 9.1716 13.4493 8.32375 12.8241 7.69863C12.199 7.07351 11.3512 6.72232 10.4671 6.72232Z" fill="#C92627"/>
</svg>
